<?xml version="1.0" encoding="utf-8"?>
<!-- Generator: Adobe Illustrator 16.0.0, SVG Export Plug-In . SVG Version: 6.00 Build 0)  -->
<!DOCTYPE svg PUBLIC "-//W3C//DTD SVG 1.1//EN" "http://www.w3.org/Graphics/SVG/1.1/DTD/svg11.dtd">
<svg version="1.1" id="Capa_1" xmlns="http://www.w3.org/2000/svg" xmlns:xlink="http://www.w3.org/1999/xlink" x="0px" y="0px"
	 width="9px" height="17px" viewBox="0 0 9 17" enable-background="new 0 0 9 17" xml:space="preserve">
<path fill="#FFFFFF" d="M0.234,8.895L0.21,8.871C0.162,8.823,0.114,8.774,0.09,8.727C0.066,8.702,0.066,8.679,0.066,8.679
	C0.042,8.654,0.042,8.631,0.042,8.606C0.018,8.559,0.018,8.534,0.018,8.486c-0.024-0.072-0.024-0.144,0-0.216
	c0-0.048,0.024-0.096,0.048-0.168C0.09,8.054,0.114,8.005,0.138,7.981L0.21,7.909l0.024-0.023L7.833,0.19
	c0.265-0.241,0.722-0.265,0.986,0c0.24,0.289,0.24,0.721,0,1.01L1.653,8.39l7.167,7.214c0.24,0.265,0.24,0.673,0,0.938
	c-0.121,0.144-0.313,0.216-0.505,0.216c-0.168,0-0.336-0.073-0.481-0.216L0.234,8.895z"/>
</svg>
