<?xml version="1.0" encoding="utf-8"?>
<!-- Generator: Adobe Illustrator 16.0.0, SVG Export Plug-In . SVG Version: 6.00 Build 0)  -->
<!DOCTYPE svg PUBLIC "-//W3C//DTD SVG 1.1//EN" "http://www.w3.org/Graphics/SVG/1.1/DTD/svg11.dtd">
<svg version="1.1" id="Capa_1" xmlns="http://www.w3.org/2000/svg" xmlns:xlink="http://www.w3.org/1999/xlink" x="0px" y="0px"
	 width="57px" height="60px" viewBox="0 0 57 60" enable-background="new 0 0 57 60" xml:space="preserve">
<g>
	<rect fill="#70849C" width="57" height="60"/>
	<path fill="#FFFFFF" d="M38.704,15.141c0,5.827-4.723,17.44-10.549,17.44c-5.828,0-10.55-11.613-10.55-17.44
		c0-5.825,4.724-10.118,10.55-10.118S38.704,9.315,38.704,15.141z"/>
	<path fill="#FFFFFF" d="M51,60V46.733c0-2.55-1.984-5.325-4.393-6.167l-9.652-3.398C34.548,36.326,32,34.8,32,32.251v-0.972
		c-1,1.688-2.424,2.162-4.215,2.162c-1.617,0-2.785-0.273-3.785-1.692v0.502c0,2.549-2.098,4.169-4.462,5.124l-8.622,2.983
		C8.553,41.313,6,44.184,6,46.733V60H51z"/>
</g>
</svg>
